# xmcd CD database generated by RipIT
#
# Track frame offsets:
# 150
# 27489
# 51227
# 72615
# 103047
# 121054
# 136581
# 150512
# 168237
# 183459
# 204594
#
# Disc length: 3071 seconds
#
# Revision: 0
# Processed by: cddbd v1.5.2PL0 Copyright (c) Steve Scherf et al.
# Submitted via: RipIT 3.9.0 www.suwald.com/ripit/ripit.html on 2015-11-08 at 18:58
#
DISCID=940bfd0b
DTITLE=Too Noisy Fish - Fast Easy Sick
DYEAR=2011
DGENRE=Jazz
TTITLE0=13 Potatoes
TTITLE1=Amen Yourself - Ultratonic
TTITLE2=Black Keys, White Keys: What's the difference, they All end Up The Same
TTITLE3=Curly Wurly Napoleon
TTITLE4=Bread? Shade! She? Me ...
TTITLE5=Fish That Sing Can't Swim
TTITLE6=There's Lots Of Us
TTITLE7=Sick Jazz
TTITLE8=TBC (To Be Cancelled)
TTITLE9=The Sky Is Falling
TTITLE10=Latin Laundry
EXTD=
EXTT0=
EXTT1=
EXTT2=
EXTT3=
EXTT4=
EXTT5=
EXTT6=
EXTT7=
EXTT8=
EXTT9=
EXTT10=
PLAYORDER=
